<!-- Generator: Adobe Illustrator 24.1.2, SVG Export Plug-In  -->
<svg version="1.1" xmlns="http://www.w3.org/2000/svg" xmlns:xlink="http://www.w3.org/1999/xlink" x="0px" y="0px" width="218px"
	 height="145.3px" viewBox="0 0 218 145.3" style="overflow:visible;enable-background:new 0 0 218 145.3;" xml:space="preserve">
<style type="text/css">
	.st0{opacity:0.3;}
	.st1{fill:none;}
	.st2{fill:#E23237;}
	.st3{fill:#B52E31;}
	.st4{fill:#FFFFFF;}
	.st5{fill:#010101;}
	.st6{fill:#EBEBEB;}
	.st7{fill:#CD6799;}
	.st8{fill:#F7DF1E;}
	.st9{fill-rule:evenodd;clip-rule:evenodd;fill:#1A1918;}
	.st10{fill-rule:evenodd;clip-rule:evenodd;fill:#21609B;}
</style>
<defs>
</defs>
<g class="st0">
	<rect class="st1" width="218" height="145.3"/>
	<g>
		<path class="st2" d="M17.1,14.8l20.5-7.3l21.1,7.2l-3.4,27.2l-17.7,9.8l-17.4-9.7L17.1,14.8z"/>
		<path class="st3" d="M58.7,14.7L37.6,7.5v44.1l17.7-9.8L58.7,14.7L58.7,14.7z"/>
		<path class="st4" d="M37.6,12.6L37.6,12.6L24.8,41.1l4.8-0.1l2.6-6.4h5.5h0h6l2.8,6.5l4.6,0.1L37.6,12.6L37.6,12.6z M37.7,21.7
			l4.3,9h-4.1h-0.2h-3.8L37.7,21.7L37.7,21.7z"/>
	</g>
	<g>
		<polygon class="st5" points="76.8,96 73.4,57.3 111.3,57.3 107.9,96 92.3,100.3 		"/>
		<polygon class="st5" points="92.4,97 104.9,93.5 107.9,60.4 92.4,60.4 		"/>
		<g>
			<polygon class="st6" points="92.4,74.8 86.1,74.8 85.6,69.9 92.4,69.9 92.4,65.2 92.3,65.2 80.5,65.2 80.6,66.4 81.7,79.5 
				92.4,79.5 			"/>
			<polygon class="st6" points="92.4,87.1 92.3,87.1 87.1,85.7 86.7,81.9 84.1,81.9 81.9,81.9 82.6,89.4 92.3,92.1 92.4,92.1 			"/>
		</g>
		<g>
			<polygon class="st4" points="92.3,74.8 92.3,79.5 98.2,79.5 97.6,85.7 92.3,87.1 92.3,92.1 102.1,89.4 102.2,88.6 103.3,76.1 
				103.4,74.8 102.1,74.8 			"/>
			<polygon class="st4" points="92.3,65.2 92.3,68.1 92.3,69.9 92.3,69.9 103.8,69.9 103.8,69.9 103.8,69.9 103.9,68.9 104.1,66.4 
				104.2,65.2 			"/>
		</g>
	</g>
	<g>
		<path class="st7" d="M54.9,114c-1.7,0-3.1,0.4-4.4,1c-0.4-0.9-0.9-1.7-1-2.3c-0.1-0.7-0.2-1.1-0.1-1.9c0.1-0.8,0.6-2,0.6-2
			s-0.1-0.5-1.1-0.5s-1.8,0.2-1.9,0.4c-0.1,0.3-0.3,0.8-0.4,1.4c-0.2,0.9-1.9,4-2.9,5.7c-0.3-0.6-0.6-1.2-0.7-1.7
			c-0.1-0.7-0.2-1.1-0.1-1.9c0.1-0.8,0.6-2,0.6-2s-0.1-0.5-1.1-0.5c-1,0-1.8,0.2-1.9,0.4c-0.1,0.3-0.2,0.9-0.4,1.4s-2.5,5.8-3.2,7.2
			c-0.3,0.7-0.6,1.2-0.8,1.6l0,0c0,0,0,0,0,0.1c-0.2,0.3-0.3,0.5-0.3,0.5s0,0,0,0c-0.1,0.2-0.3,0.5-0.3,0.5c-0.1,0-0.1-0.6,0-1.5
			c0.4-1.8,1.2-4.6,1.2-4.7c0-0.1,0.2-0.5-0.5-0.8c-0.7-0.3-0.9,0.2-1,0.2c-0.1,0-0.1,0.1-0.1,0.1s0.8-3.2-1.5-3.2
			c-1.4,0-3.3,1.5-4.3,2.9c-0.6,0.3-1.9,1-3.2,1.8c-0.5,0.3-1.1,0.6-1.6,0.9c0,0-0.1-0.1-0.1-0.1c-2.7-2.9-7.7-4.9-7.5-8.8
			c0.1-1.4,0.6-5.1,9.6-9.6c7.4-3.6,13.3-2.6,14.3-0.4c1.5,3.2-3.2,9.1-10.8,10c-2.9,0.3-4.4-0.8-4.8-1.2c-0.4-0.4-0.5-0.5-0.6-0.4
			c-0.2,0.1-0.1,0.5,0,0.8c0.2,0.6,1.2,1.7,2.8,2.2c1.4,0.5,4.8,0.7,9-0.9c4.6-1.8,8.3-6.8,7.2-11c-1.1-4.2-8.1-5.6-14.7-3.3
			c-4,1.4-8.2,3.6-11.3,6.5c-3.7,3.4-4.2,6.4-4,7.7c0.9,4.4,7,7.3,9.4,9.4c-0.1,0.1-0.2,0.1-0.3,0.2c-1.2,0.6-5.9,3-7,5.6
			c-1.3,2.9,0.2,5,1.2,5.3c3.1,0.9,6.4-0.7,8.1-3.3c1.7-2.6,1.5-5.9,0.7-7.5c0,0,0,0,0-0.1c0.3-0.2,0.6-0.4,1-0.6
			c0.6-0.4,1.2-0.7,1.8-1c-0.3,0.8-0.5,1.8-0.6,3.2c-0.1,1.7,0.5,3.8,1.4,4.6c0.4,0.4,0.9,0.4,1.2,0.4c1,0,1.5-0.9,2-1.9
			c0.6-1.2,1.2-2.7,1.2-2.7s-0.7,3.9,1.2,3.9c0.7,0,1.4-0.9,1.7-1.4v0c0,0,0,0,0.1-0.1c0.1-0.1,0.1-0.2,0.1-0.2v0
			c0.3-0.5,0.9-1.6,1.9-3.5c1.2-2.4,2.4-5.4,2.4-5.4s0.1,0.7,0.5,1.9c0.2,0.7,0.7,1.5,1,2.2c-0.3,0.4-0.5,0.6-0.5,0.6s0,0,0,0
			c-0.2,0.3-0.5,0.6-0.7,0.9c-1,1.1-2.1,2.5-2.3,2.8c-0.2,0.4-0.1,0.8,0.2,1c0.3,0.2,0.7,0.2,1.2,0.2c0.9-0.1,1.5-0.3,1.8-0.4
			c0.5-0.2,1-0.4,1.5-0.8c0.9-0.7,1.5-1.7,1.5-3c0-0.7-0.3-1.4-0.6-2.1c0.1-0.1,0.2-0.2,0.3-0.4c1.5-2.2,2.6-4.6,2.6-4.6
			s0.1,0.7,0.5,1.9c0.2,0.6,0.5,1.3,0.9,1.9c-1.4,1.1-2.3,2.5-2.6,3.3c-0.6,1.6-0.1,2.3,0.7,2.5c0.4,0.1,0.9-0.1,1.3-0.3
			c0.5-0.2,1.1-0.4,1.6-0.8c0.9-0.7,1.8-1.7,1.8-3c0-0.6-0.2-1.2-0.4-1.8c1.2-0.5,2.7-0.8,4.7-0.5c4.2,0.5,5,3.1,4.9,4.2
			s-1,1.7-1.3,1.9c-0.3,0.2-0.4,0.2-0.4,0.4c0,0.2,0.2,0.2,0.4,0.1c0.3-0.1,2.2-0.9,2.3-2.9C61.7,116.8,59.2,114,54.9,114L54.9,114z
			 M22.6,124.9c-1.4,1.5-3.3,2.1-4.2,1.6c-0.9-0.5-0.5-2.8,1.2-4.4c1-1,2.4-1.9,3.3-2.4c0.2-0.1,0.5-0.3,0.9-0.5
			c0.1,0,0.1-0.1,0.1-0.1l0,0c0.1,0,0.1-0.1,0.2-0.1C24.7,121.3,24.1,123.3,22.6,124.9L22.6,124.9z M32.7,118
			c-0.5,1.2-1.5,4.2-2.1,4c-0.5-0.1-0.9-2.4-0.1-4.7c0.4-1.1,1.2-2.5,1.6-3c0.8-0.8,1.6-1.1,1.8-0.8C34.2,114,33,117.3,32.7,118
			L32.7,118z M41.1,122c-0.2,0.1-0.4,0.2-0.5,0.1c-0.1,0,0.1-0.2,0.1-0.2s1-1.1,1.5-1.6c0.2-0.3,0.5-0.7,0.8-1v0.1
			C42.9,120.7,41.6,121.6,41.1,122L41.1,122z M47.5,120.5c-0.1-0.1-0.1-0.5,0.4-1.6c0.2-0.4,0.7-1.2,1.4-1.8
			c0.1,0.3,0.1,0.6,0.1,0.8C49.4,119.6,48.2,120.3,47.5,120.5L47.5,120.5z"/>
	</g>
	<g>
		<path class="st8" d="M133,84.7h49.8v49.8H133V84.7z"/>
		<path d="M146.1,126.3l3.8-2.3c0.7,1.3,1.4,2.4,3,2.4c1.5,0,2.5-0.6,2.5-2.9v-15.9h4.7v16c0,4.8-2.8,7.1-7,7.1
			C149.3,130.5,147.2,128.6,146.1,126.3"/>
		<path d="M162.6,125.8l3.8-2.2c1,1.6,2.3,2.8,4.6,2.8c1.9,0,3.2-1,3.2-2.3c0-1.6-1.3-2.2-3.4-3.1l-1.2-0.5c-3.4-1.4-5.6-3.2-5.6-7
			c0-3.5,2.7-6.2,6.8-6.2c3,0,5.1,1,6.6,3.7l-3.6,2.3c-0.8-1.4-1.7-2-3-2c-1.4,0-2.2,0.9-2.2,2c0,1.4,0.9,2,2.9,2.8l1.2,0.5
			c4,1.7,6.2,3.4,6.2,7.4c0,4.2-3.3,6.5-7.8,6.5C166.8,130.5,164,128.5,162.6,125.8"/>
	</g>
	<g>
		<path class="st9" d="M205.3,19.7l4.8,0c0,0-8.9,12-9.6,13c-0.2,0.3-0.6,0.7-0.8,1.1c-0.5,1.1-0.9,3.4-0.9,3.4l-4.4,0
			c0,0,0.7-2.4,0.7-3.7c0-1.1-0.6-2.3-0.9-3.4c-0.3-1.2-0.8-3.4-0.8-3.4h4.5l0.6,2.5L205.3,19.7"/>
		<path class="st9" d="M196.3,22.2c0.9,0.5,1.4,3.5,1.4,3.5s-4.6,0.1-7.1,0.1h-2.2l-2.6,11.5h-4c0,0,2.5-12.5,3.1-14.7
			c0.2-0.7,1.3-0.6,3.2-0.6h3C193,21.9,195.3,21.6,196.3,22.2"/>
		<path class="st9" d="M177.5,27.8c0,0,0.1-0.7-0.4-1.6c-0.5-0.7-0.9-0.9-2.1-0.9c-3.5-0.1-3.4,2.5-3.4,2.5L177.5,27.8L177.5,27.8z
			 M181.3,24.8c0.5,1.8-0.5,6.2-0.5,6.2s-5.1-0.1-7.9,0c-0.9,0-1.9-0.1-2.2,0.3c-0.4,0.6,0.1,1.4,0.6,1.8c0.5,0.4,1.4,0.5,1.8,0.5
			c2.3,0.3,7,0.1,7,0.1l-0.8,3.6c0,0-6.7,0.3-10.1-0.5c-0.7-0.2-1.3-0.5-1.7-0.9c-0.1-0.1-0.2-0.3-0.3-0.4c-0.1-0.1-0.3-0.5-0.5-0.8
			c-0.8-2,0.1-6,0.9-8.1c0.1-0.2,0.2-0.6,0.3-0.8c0.2-0.3,0.3-0.7,0.4-0.9c0.1-0.1,0.2-0.2,0.3-0.3c0.1-0.2,0.2-0.3,0.3-0.4
			c0.3-0.4,0.7-0.6,1.1-0.9c1.4-1,3.9-1.9,7-1.5c1.1,0.1,2.9,0.5,3.7,1.7C181.1,23.7,181.2,24.4,181.3,24.8L181.3,24.8L181.3,24.8z"
			/>
		<path class="st9" d="M162.8,21.9l3.9,0c0,0-2.2,10.3-3.3,15.4H159c-3.1,0-5.9,0.4-7.1-1.9c-1.2-2.2-0.1-5.8,0.5-8.2
			c0.4-1.7,1.1-5.3,1.1-5.3l4,0c0,0-1.1,5.5-1.6,8.2c-0.2,1-0.5,1.9-0.2,2.6c0.3,0.7,0.8,0.7,2.3,0.8c0.5,0,2,0,2,0L162.8,21.9"/>
		<path class="st9" d="M144.5,29.3c0.4-1.5,1-3,0.9-4.3c-0.1-1.4-1.3-2.7-2-2.9c-2.3-0.8-4.4,0.3-5.3,1.2c-1.1,1.2-1.5,2.6-1.9,4.5
			c-0.3,1.4-0.5,2.9,0,4c0.9,2,3.8,1.5,7,1.5C143.8,32.1,144.2,30.7,144.5,29.3L144.5,29.3L144.5,29.3z M150,23.6
			c0.4,3.2-1.3,6.8-2.4,9.9c1.2,0.1,2.3,0,2.3,0.1c0.1,0.1-0.8,3.7-1.1,3.7c-1,0-4.1,0.1-5.4,0.1c-4.3,0-8.3,0.3-10.4-1.9
			c-0.8-0.9-1.4-2.4-1.5-3.4c-0.2-1.8,0.1-3.7,0.5-5.3c0.4-1.4,0.8-2.8,1.5-4c1.8-3.2,5-5.5,10.2-5c1,0.1,2.5,0.6,3.4,1.1
			c0.1,0,0.3,0.2,0.3,0.2C148.6,19.9,149.7,21.8,150,23.6L150,23.6L150,23.6z"/>
		<path class="st9" d="M130.9,21.9c-0.3,1.2-0.5,2.5-0.8,3.7h-4.3c0.3-1.3,0.6-2.6,0.9-3.7C128.1,21.9,129.4,21.9,130.9,21.9"/>
		<path class="st9" d="M125.6,26.7h4.2c-0.5,3-1.6,7.9-2.5,11.3c-0.5,2.1-0.9,3.7-2.3,4.8c-0.1,0.1-0.2,0.1-0.3,0.2
			c-0.3,0.3-1.5,0.5-2.2,0.6c-1.1,0.1-2.4,0-3.7,0c0.4-1.3,0.8-2.9,1.1-4c3.3,0.4,3.4-2.7,4-5.7C124.3,32,125.4,27.4,125.6,26.7"/>
		<g transform="translate(0.000000, 8.827586)">
			<path class="st10" d="M115.9,25.7l-0.1,0.2c-1.5,3-4.2,4.8-8.1,4.9c-1.8,0-3.5-0.4-4.6-0.9c-2.4-1.1-4.5-3.1-5.6-5.3
				c-1.6-3.1-1.9-7.4,1.4-10.6c0.1,0-0.4,0.7-0.4,0.7L98.5,15c-2.4,7.5,5,13.9,12.1,13.2C112.3,28,114.5,27.1,115.9,25.7"/>
			<path class="st10" d="M111.6,22.6c1.8,0,3.7-0.8,4.8-2c-1,2.5-3.8,4.1-7.6,3.6c-3.2-0.4-6.2-3.6-6.5-6.8
				c-0.2-2.3,0.6-3.7,1.9-5.4c-0.5,0.9-0.6,1.6-0.7,2C103,19,107.5,22.6,111.6,22.6"/>
			<path class="st10" d="M116.2,16.4c-0.3,0.6-1.9,1.9-2.6,2c-2.8,0.6-4.6-0.7-5.6-2.3c-0.1-0.2-0.4-0.8-0.4-1
				c-0.4-1.2-0.2-3.1,0.9-4.1c-0.3,0.9-0.4,2-0.2,2.7c0.1,0.4,0.4,1.2,0.7,1.6c0.6,0.8,1,1.1,1.7,1.5c0.3,0.2,0.7,0.4,0.9,0.4
				C112.3,17.5,113.8,18,116.2,16.4"/>
		</g>
	</g>
</g>
</svg>
